<svg width="128" height="128" viewBox="0 0 128 128" xmlns="http://www.w3.org/2000/svg">
  <defs>
    <linearGradient id="grad1" x1="0%" y1="0%" x2="100%" y2="100%">
      <stop offset="0%" style="stop-color:#667eea;stop-opacity:1" />
      <stop offset="100%" style="stop-color:#764ba2;stop-opacity:1" />
    </linearGradient>
  </defs>
  
  <!-- Background circle -->
  <circle cx="64" cy="64" r="60" fill="url(#grad1)" stroke="#fff" stroke-width="4"/>
  
  <!-- Rocket body -->
  <path d="M64 20 L64 80 L40 80 L40 90 L64 90 L64 100 L80 100 L80 90 L88 90 L88 80 L80 80 L80 20 Z" fill="#fff"/>
  
  <!-- Rocket window -->
  <circle cx="64" cy="45" r="8" fill="#667eea"/>
  
  <!-- Rocket fins -->
  <path d="M40 80 L30 100 L40 100 Z" fill="#fff"/>
  <path d="M88 80 L98 100 L88 100 Z" fill="#fff"/>
  
  <!-- Stars -->
  <circle cx="25" cy="35" r="2" fill="#fff"/>
  <circle cx="95" cy="45" r="1.5" fill="#fff"/>
  <circle cx="35" cy="95" r="1" fill="#fff"/>
  <circle cx="85" cy="25" r="1.5" fill="#fff"/>
  
  <!-- Enhancement sparkles -->
  <path d="M70 15 L72 20 L77 18 L75 23 L80 25 L75 27 L77 32 L72 30 L70 35 L68 30 L63 32 L65 27 L60 25 L65 23 L63 18 L68 20 Z" fill="#fff"/>
  <path d="M45 15 L47 20 L52 18 L50 23 L55 25 L50 27 L52 32 L47 30 L45 35 L43 30 L38 32 L40 27 L35 25 L40 23 L38 18 L43 20 Z" fill="#fff"/>
</svg>